<svg xmlns="http://www.w3.org/2000/svg" viewBox="0 0 300 90" role="img" aria-label="Toppifresa">
  <!-- Leaves -->
  <path d="M28 38 C18 28 22 12 32 14 C28 20 25 30 28 38Z" fill="#5fb45e"/>
  <path d="M33 36 C33 18 40 10 40 10 C44 14 43 24 36 36Z" fill="#a8e0a6"/>
  <path d="M38 38 C44 24 54 20 56 20 C54 28 48 36 38 38Z" fill="#5fb45e"/>
  <!-- Strawberry body -->
  <path d="M17 46 C15 36 21 32 28 38 C32 36 36 36 42 36 C50 32 58 36 58 46 C62 62 52 80 40 82 C28 80 16 62 17 46Z" fill="rgba(255,255,255,0.95)"/>
  <!-- Highlight -->
  <ellipse cx="30" cy="50" rx="5" ry="8" fill="rgba(255,123,172,0.3)" transform="rotate(-20,30,50)"/>
  <!-- Seeds -->
  <ellipse cx="30" cy="53" rx="1.8" ry="2.5" fill="#e2787d" opacity="0.8" transform="rotate(-15,30,53)"/>
  <ellipse cx="39" cy="47" rx="1.8" ry="2.5" fill="#e2787d" opacity="0.8" transform="rotate(5,39,47)"/>
  <ellipse cx="47" cy="55" rx="1.8" ry="2.5" fill="#e2787d" opacity="0.8" transform="rotate(20,47,55)"/>
  <ellipse cx="36" cy="65" rx="1.8" ry="2.5" fill="#e2787d" opacity="0.8" transform="rotate(-5,36,65)"/>
  <ellipse cx="26" cy="62" rx="1.8" ry="2.5" fill="#e2787d" opacity="0.8" transform="rotate(-25,26,62)"/>
  <ellipse cx="46" cy="67" rx="1.8" ry="2.5" fill="#e2787d" opacity="0.8" transform="rotate(15,46,67)"/>
  <!-- Wordmark (white) -->
  <text x="74" y="60"
    font-family="Georgia, 'Palatino Linotype', 'Book Antiqua', serif"
    font-size="40"
    font-weight="700"
    fill="#ffffff"
    letter-spacing="-0.5">toppifresa</text>
</svg>
